<?xml version="1.0" encoding="utf-8"?>
<!-- Generator: Adobe Illustrator 19.0.0, SVG Export Plug-In . SVG Version: 6.00 Build 0)  -->
<svg version="1.1" id="Layer_1" xmlns="http://www.w3.org/2000/svg" xmlns:xlink="http://www.w3.org/1999/xlink" x="0px" y="0px"
	 viewBox="-241 333 128 128" style="enable-background:new -241 333 128 128;" xml:space="preserve">
<style type="text/css">
	.st0{fill:#312450;}
	.st1{fill:#FFFFFF;}
</style>
<g transform="translate(0.000000,128.000000) scale(0.100000,-0.100000)">
	<path class="st0" d="M-1857-2185c-74-16-145-46-192-82l-34-26l-69,23c-37,13-71,20-75,16c-4-3-1-48,6-100c12-88,12-98-7-158
		c-31-92-36-171-19-254c29-134,99-239,216-325c34-24,61-46,61-49s-10-10-22-15c-35-15-34-40,2-55s109-8,125,12c14,18,181,12,210-8
		c29-21,98-18,126,6l24,20l-22,18l-21,19l54,43c172,137,243,277,231,455c-3,44-13,102-22,130c-17,47-16,55,0,153
		c10,56,15,106,11,109c-4,4-40-4-79-18l-72-26l-35,24c-61,43-153,82-220,92C-1760-2168-1779-2168-1857-2185z M-1837-2461
		c12-6,34-23,50-37l27-26l28,26c82,79,216,58,269-41c40-76,26-150-40-208c-54-48-117-53-198-19c-12,5-22-2-36-25l-20-31l-19,31
		c-21,36-22,36-60,16c-39-20-90-19-140,4c-127,58-133,227-10,302C-1951-2448-1871-2444-1837-2461z M-1629-2921c63-27,119-88,119-129
		c0-25-8-35-46-59c-63-40-131-55-228-49c-90,6-170,34-206,73c-20,21-21,27-10,59C-1963-2913-1773-2860-1629-2921z"/>
	<path class="st0" d="M-1936-2529c-36-22-58-75-49-114c8-32,52-73,88-81c57-13,127,44,127,104c0,54-57,110-112,110
		C-1895-2510-1919-2519-1936-2529z"/>
	<path class="st0" d="M-1685-2522c-59-32-74-114-30-166c71-84,206-13,179,95C-1551-2530-1631-2492-1685-2522z"/>
</g>
<path class="st1" d="M-167.8,389.6c-1.8,1-2.3,3.6-0.9,5.2c2.2,2.6,6.4,0.4,5.6-3C-163.6,389.8-166.1,388.6-167.8,389.6z"/>
<path class="st1" d="M-186.1,389.6c-1.8,1-2.3,3.6-0.9,5.2c2.2,2.6,6.4,0.4,5.6-3C-181.9,389.8-184.4,388.6-186.1,389.6z"/>
<path class="st0" d="M-177.2,422.1c-3.2,0.6-5.9,3-6.9,6.1c-0.4,1.4-0.4,3.7,0,5.1c0.9,2.7,3.1,5,5.8,5.8c1.4,0.4,3.7,0.4,5.1,0
	c2.7-0.9,5-3.1,5.8-5.8c0.4-1.4,0.4-3.7,0-5.1c-0.8-2.7-3.1-5-5.8-5.8C-174.3,422.1-176.2,421.9-177.2,422.1z M-175,426.6
	c0,0.5,0.1,0.6,0.4,0.8c0.2,0.1,0.6,0.4,0.8,0.6l0.3,0.4l-0.7,0.3c-0.7,0.3-0.7,0.3-1.1,0.1c-0.6-0.3-1.2-0.1-1.2,0.5
	c0,0.4,0.3,0.6,1.2,0.7c2.1,0.3,2.6,3.1,0.7,4c-0.4,0.2-0.4,0.3-0.4,0.8v0.6h-0.7h-0.7v-0.6c0-0.5-0.1-0.6-0.4-0.8
	c-0.4-0.2-0.9-0.7-1-1c0-0.1,0.2-0.3,0.6-0.5c0.6-0.3,0.7-0.3,1.1,0c0.6,0.3,1.2,0,1.2-0.5c0-0.4-0.3-0.6-1.2-0.7
	c-2.1-0.3-2.6-3.1-0.7-4c0.4-0.2,0.4-0.3,0.4-0.8V426h0.7h0.7V426.6z"/>
</svg>
